<svg width="161" height="175" viewBox="0 0 161 175" fill="none" xmlns="http://www.w3.org/2000/svg">
<path d="M69.1419 162.5C71.914 162.5 74.1612 160.277 74.1612 157.534C74.1612 154.792 71.914 152.569 69.1419 152.569C66.3698 152.569 64.1226 154.792 64.1226 157.534C64.1226 160.277 66.3698 162.5 69.1419 162.5Z" fill="#1F5206"/>
<path d="M120.414 168.903L125.114 161.009C125.366 160.583 125.207 160.037 124.754 159.797L116.459 155.324" fill="#193207"/>
<path d="M44.937 171.113L40.2372 163.218C39.9842 162.792 40.144 162.247 40.5966 162.007L48.8912 157.534" fill="#88922C"/>
<path d="M101.735 101.635L106.435 93.741C106.688 93.315 106.528 92.7692 106.075 92.5296L97.7808 88.0566" fill="#193207"/>
<path d="M110.508 134.437L115.208 126.543C115.461 126.117 115.301 125.571 114.849 125.331L106.554 120.858" fill="#193207"/>
<path d="M104.264 112.525L102.227 103.925C104.251 103.606 107.047 102.953 110.109 101.502C113.451 99.9181 115.874 97.9878 117.445 96.5234H126.951C125.433 99.0927 122.331 103.552 116.832 107.28C111.88 110.635 107.127 111.953 104.264 112.525Z" fill="#88922C"/>
<path d="M94.8115 77.2074L97.5542 86.819C100.457 86.3131 105.902 84.9819 111.387 81.0681C116.34 77.5403 119.123 73.4933 120.521 71.0837H110.469C108.165 72.5747 105.077 74.2654 101.202 75.5833C98.8723 76.3688 96.7021 76.8746 94.8115 77.2074Z" fill="#88922C"/>
<path d="M2.39934 75.37C-1.68802 66.8899 -0.476458 57.2651 5.44823 50.955C11.2131 44.818 19.2015 44.2056 21.0787 44.1124C20.9855 43.2471 19.9737 31.4257 29.7993 23.9574C37.8676 17.8337 47.2139 19.2182 48.7051 19.4578C53.5513 8.515 64.096 0.980177 75.9586 0.0882453C90.351 -0.99006 104.331 7.90263 109.403 21.894C117.019 19.1117 125.58 20.7491 131.211 26.0475C138.96 33.3427 136.816 43.4734 136.67 44.1257C138.068 44.1657 148.413 44.6316 155.203 53.045C160.968 60.1805 160.169 68.1014 159.956 69.7521C137.695 70.0051 115.434 70.258 93.1735 70.5242C95.5168 67.6887 96.3156 65.5587 95.5966 64.1343C94.0256 61.0325 85.2384 61.2455 69.2351 64.7733C70.034 65.5587 71.3653 67.0896 72.1775 69.3927C73.1095 72.0152 72.8698 74.2783 72.6701 75.3966H2.39934V75.37Z" fill="#B2DA34"/>
<path d="M55.1086 78.2855C53.5775 78.3388 51.0612 78.2456 48.1854 77.2072C45.5892 76.262 43.7385 74.9308 42.6202 73.9856H31.8892C36.0564 79.2307 40.197 81.6402 43.166 82.865C48.212 84.9417 51.7801 84.4358 60.2877 87.0318C63.6828 88.0701 66.3588 89.1351 68.0364 89.854C68.8086 86.8454 69.5808 83.8501 70.3397 80.8415C69.3278 80.735 66.8515 80.3356 64.4949 78.4186C62.5111 76.8078 61.6058 74.9175 61.233 73.9856H53.0849L55.1219 78.2855H55.1086Z" fill="#193207"/>
<path d="M82.9359 175H43.4336C53.7785 138.311 64.1101 101.635 74.455 64.9463H82.9359V175Z" fill="#193207"/>
<path d="M82.9351 175C96.1025 175 109.27 175 122.437 175C112.093 138.311 101.761 101.635 91.416 64.9463C88.5935 64.9463 85.7576 64.9463 82.9351 64.9463V175Z" fill="#88922C"/>
<path d="M71.3524 75.9425H2.39972C2.33315 75.5298 1.72071 71.5361 4.84948 68.5541C7.20604 66.3176 10.7609 65.5189 14.0494 66.4774C14.7284 65.5322 20.1738 58.2503 30.3589 57.4782C39.7585 56.7726 46.0427 62.1375 47.0412 63.0161C47.3874 62.4703 48.2661 61.219 49.9836 60.367C51.7277 59.4884 53.3653 59.515 54.031 59.5549C53.9378 59.0224 52.7263 50.569 59.543 45.0178C64.6555 40.8643 72.1513 40.0655 78.4221 43.0608C83.2151 36.2316 91.6162 32.4109 100.244 33.1431C109.004 33.8886 116.646 39.1869 119.988 46.8682C120.84 46.562 127.55 44.259 134.207 47.9066C141.423 51.8603 142.236 59.3153 142.302 60.0209C143.514 59.8478 148.533 59.2887 153.459 62.3239C158.226 65.2659 159.73 69.6058 160.076 70.7507C137.762 70.937 115.435 71.1367 93.1206 71.3231C92.8544 70.4711 92.6014 69.6058 92.3484 68.7005C91.989 67.4092 91.6694 66.1579 91.4032 64.9464H74.4412C73.9486 66.6904 73.456 68.421 72.9767 70.1649C72.4308 72.0819 71.8983 74.0122 71.3524 75.9292V75.9425Z" fill="#88922C"/>
<path d="M60.9012 118.556C63.6733 118.556 65.9205 116.332 65.9205 113.59C65.9205 110.848 63.6733 108.625 60.9012 108.625C58.1291 108.625 55.8818 110.848 55.8818 113.59C55.8818 116.332 58.1291 118.556 60.9012 118.556Z" fill="#C2D836"/>
<path d="M82.9354 128.473C85.7075 128.473 87.9547 126.25 87.9547 123.508C87.9547 120.765 85.7075 118.542 82.9354 118.542C80.1633 118.542 77.916 120.765 77.916 123.508C77.916 126.25 80.1633 128.473 82.9354 128.473Z" fill="#C2D836"/>
<path d="M102.227 108.811C104.999 108.811 107.247 106.588 107.247 103.845C107.247 101.103 104.999 98.8799 102.227 98.8799C99.4552 98.8799 97.208 101.103 97.208 103.845C97.208 106.588 99.4552 108.811 102.227 108.811Z" fill="#C2D836"/>
<path d="M71.3252 83.1577C74.6404 86.2861 77.9688 89.4012 81.284 92.5297L101.734 102.607L81.6834 122.842C75.133 119.913 68.5958 116.985 62.0454 114.043C68.5958 123.987 75.133 133.931 81.6834 143.876H114.582" stroke="#C2D836" stroke-width="4.63" stroke-miterlimit="10" stroke-linecap="round"/>
<path d="M114.582 148.841C117.354 148.841 119.602 146.618 119.602 143.875C119.602 141.133 117.354 138.91 114.582 138.91C111.81 138.91 109.563 141.133 109.563 143.875C109.563 146.618 111.81 148.841 114.582 148.841Z" fill="#C2D836"/>
<path d="M82.9358 143.875L69.1426 157.534" stroke="#C2D836" stroke-width="4.63" stroke-miterlimit="10"/>
<path d="M63.6167 103.846L58.9169 95.9513C58.6639 95.5253 58.8237 94.9794 59.2763 94.7398L67.5709 90.2668" fill="#88922C"/>
<path d="M54.8432 136.647L50.1434 128.753C49.8905 128.327 50.0502 127.781 50.5029 127.542L58.7975 123.069" fill="#88922C"/>
<path d="M69.1419 162.5C71.914 162.5 74.1612 160.277 74.1612 157.534C74.1612 154.792 71.914 152.569 69.1419 152.569C66.3698 152.569 64.1226 154.792 64.1226 157.534C64.1226 160.277 66.3698 162.5 69.1419 162.5Z" fill="#C2D836"/>
<path d="M72.5897 89.8539C75.3618 89.8539 77.609 87.6308 77.609 84.8884C77.609 82.146 75.3618 79.9229 72.5897 79.9229C69.8175 79.9229 67.5703 82.146 67.5703 84.8884C67.5703 87.6308 69.8175 89.8539 72.5897 89.8539Z" fill="#C2D836"/>
</svg>
