<svg width="864" height="78" viewBox="0 0 864 78" fill="none" xmlns="http://www.w3.org/2000/svg">
<g clip-path="url(#clip0_4643_1951)">
<path d="M468.755 28.1358C468.755 24.4334 468.755 21.5787 468.68 18.886H512.421C532.238 18.886 540.154 23.5109 540.154 38.3081V38.5449C540.154 47.9443 536.975 53.2673 528.418 55.96C529.888 57.805 531.22 59.7372 532.615 61.6694C535.329 65.6835 538.206 69.7599 541.008 73.6119H520.036C518.327 70.994 516.078 67.7529 513.59 64.3621L510.562 60.1984H487.252V61.283C487.252 66.3691 487.252 70.2211 487.327 73.6119H468.68C468.755 70.2959 468.755 66.4439 468.755 61.283V28.1358ZM487.239 33.9948V45.4012H511.328C519.094 45.4012 521.356 43.5563 521.356 39.617V39.4674C521.356 35.5406 519.106 33.9948 511.328 33.9948H487.239Z" fill="#00200A"/>
<path d="M595.167 18.886C600.533 31.377 614.28 63.128 619.017 73.6119H598.736L595.934 66.4439H564.155L561.441 73.6119H541.788C546.525 63.128 560.435 31.377 565.801 18.886H595.167ZM569.608 52.108H590.354C588.181 46.3985 585.843 40.4647 583.745 34.9173H576.055C574.107 40.3151 571.858 46.0994 569.759 51.7215L569.608 52.108Z" fill="#00200A"/>
<path d="M650.796 1.48663e-05V13.6379L623.139 16.2557V7.39238C628.341 6.08344 645.745 1.45854 650.796 -0.0124512V1.48663e-05ZM623.289 28.1359C623.289 24.4335 623.289 21.666 623.214 18.8861H641.862C641.786 21.7408 641.786 24.2839 641.786 28.1359V61.2831C641.786 66.3692 641.786 70.1464 641.862 73.612H623.214C623.289 70.2212 623.289 66.444 623.289 61.2831V28.1359Z" fill="#00200A"/>
<path d="M648.861 47.4832V45.0149C648.861 24.4334 655.772 17.8015 685.616 17.8015C715.46 17.8015 721.906 22.1896 721.592 42.0854L703.183 42.397C703.183 36.3011 702.09 33.758 685.314 33.758C669.544 33.758 667.911 35.9147 667.911 46.087V46.3986C667.911 56.4961 669.858 58.7275 685.628 58.7275C702.178 58.7275 703.346 55.9476 703.346 50.101L721.755 50.4127C722.069 69.76 715.535 74.6965 685.628 74.6965C655.722 74.6965 648.873 67.9898 648.873 47.4832H648.861Z" fill="#00200A"/>
<path d="M728.654 28.1358C728.654 24.4334 728.654 21.5787 728.578 18.886H790.113V33.4588C780.01 33.384 764.856 33.384 753.986 33.384H747.15V39.0934H786.544V52.7313C767.117 52.6565 765.647 52.6565 757.103 52.6565H747.163V59.1264H754.778C765.66 59.1264 779.646 59.1264 791.068 59.0516V73.6244H728.603C728.679 70.3084 728.679 66.4564 728.679 61.2954V28.1483L728.654 28.1358Z" fill="#00200A"/>
<path d="M795.24 55.9601L813.812 55.6484V57.1069C813.812 59.8869 814.905 60.5725 830.21 60.5725C845.516 60.5725 845.516 59.8744 845.516 57.4186V57.0322C845.516 54.8007 844.045 53.7162 824.694 52.7937C799.826 51.5596 795.554 47.4707 795.554 35.2914C795.554 23.885 800.605 17.7891 828.652 17.7891C859.652 17.7891 862.215 23.7229 862.215 36.1391L843.643 36.4507V35.1418C843.643 32.7483 842.01 31.751 828.803 31.751C815.596 31.751 814.114 32.4491 814.114 34.4437C814.114 36.6003 815.508 37.2236 834.784 38.2209C859.954 39.5298 864 45.152 864 56.2593C864 68.5882 859.413 74.6841 830.587 74.6841C799.977 74.6841 795.24 70.9816 795.24 55.9476V55.9601Z" fill="#00200A"/>
<path d="M0 55.6984L18.3963 55.3868V56.8328C18.3963 59.5878 19.477 60.2734 34.6439 60.2734C49.8109 60.2734 49.8109 59.5878 49.8109 57.1445V56.758C49.8109 54.5391 48.3532 53.4795 29.1778 52.557C4.53626 51.3478 0.301579 47.2963 0.301579 35.2292C0.301579 23.9225 5.30277 17.8889 33.0983 17.8889C63.8217 17.8889 66.36 23.7729 66.36 36.0644L47.9637 36.3636V35.0671C47.9637 32.6986 46.3427 31.7013 33.2617 31.7013C20.1807 31.7013 18.7105 32.3869 18.7105 34.369C18.7105 36.5132 20.0927 37.124 39.1928 38.1088C64.1359 39.4053 68.1444 44.9776 68.1444 55.9851C68.1444 68.2018 63.6081 74.2354 35.046 74.2354C4.69961 74.2603 0 70.5953 0 55.6984Z" fill="#00200A"/>
<path d="M72.6055 47.2963V44.853C72.6055 24.4585 79.4538 17.8889 109.172 17.8889C138.89 17.8889 145.738 24.4585 145.738 44.853V47.2963C145.738 67.6159 138.966 74.2603 109.172 74.2603C79.3784 74.2603 72.6055 67.6159 72.6055 47.2963ZM126.877 46.2242V45.925C126.877 35.9148 125.03 33.7831 109.172 33.7831C93.3139 33.7831 91.4668 35.9273 91.4668 45.925V46.2242C91.4668 56.2344 93.3893 58.4409 109.172 58.4409C124.955 58.4409 126.877 56.222 126.877 46.2242Z" fill="#00200A"/>
<path d="M273.005 47.2963V44.853C273.005 24.4585 279.853 17.8889 309.571 17.8889C339.29 17.8889 346.138 24.4585 346.138 44.853V47.2963C346.138 67.6159 339.365 74.2603 309.571 74.2603C279.778 74.2603 273.005 67.6159 273.005 47.2963ZM327.277 46.2242V45.925C327.277 35.9148 325.429 33.7831 309.571 33.7831C293.713 33.7831 291.866 35.9273 291.866 45.925V46.2242C291.866 56.2344 293.789 58.4409 309.571 58.4409C325.354 58.4409 327.277 56.222 327.277 46.2242Z" fill="#00200A"/>
<path d="M350.448 55.6984L368.844 55.3868V56.8328C368.844 59.5878 369.925 60.2735 385.092 60.2735C400.259 60.2735 400.259 59.5878 400.259 57.1445V56.758C400.259 54.5391 398.801 53.4795 379.626 52.557C354.984 51.3353 350.749 47.2838 350.749 35.2167C350.749 23.91 355.751 17.8765 383.546 17.8765C414.269 17.8765 416.808 23.7604 416.808 36.0519L398.411 36.3511V35.0547C398.411 32.6861 396.79 31.6888 383.709 31.6888C370.628 31.6888 369.158 32.3745 369.158 34.3566C369.158 36.5007 370.54 37.1116 389.64 38.0964C414.584 39.3928 418.592 44.9652 418.592 55.9727C418.592 68.1894 414.056 74.223 385.494 74.223C355.16 74.223 350.46 70.5579 350.46 55.661L350.448 55.6984Z" fill="#00200A"/>
<path d="M251.832 54.1775C251.945 54.2648 252.221 54.1775 252.397 54.2025L253.955 39.0313C255.174 31.6639 264.837 32.524 264.498 40.228C264.272 45.3391 263.166 53.8036 262.085 58.79C260.615 65.559 255.099 72.4527 248.602 68.1894C241.088 63.2653 237.758 42.4345 234.302 33.3717C233.85 32.175 233.31 30.7165 232.493 29.794C231.224 38.6324 230.922 47.6578 229.64 56.4962C229.012 60.7721 227.793 66.9677 225.217 70.2587C221.799 74.6343 216.961 74.5844 213.154 70.907C206.645 64.6241 203.277 44.7657 199.872 35.3912C199.746 35.0297 199.256 33.3343 198.754 33.8828C198.54 36.75 198 39.5673 197.685 42.4221C196.743 50.8865 196.605 66.307 192.42 73.1882C189.266 78.3741 183.888 79.2218 179.616 75.1953C173.421 69.3736 169.789 50.5624 166.937 41.6492C166.761 41.0757 165.806 38.0589 165.504 37.9717C165.203 37.8844 165.077 38.2459 165.014 38.5327C164.135 43.2698 164.21 48.7299 163.419 53.5418C162.665 58.7526 155.691 59.9368 153.617 55.3244C152.851 53.6166 153.039 51.2106 153.115 49.2784C153.378 43.357 154.572 33.0975 157.299 28.0612C160.063 22.9626 165.618 20.9805 170.016 24.8325C176.701 30.704 180.106 50.2133 183.285 59.2512C183.486 59.8371 184.215 62.0561 184.429 62.3677C184.642 62.6794 184.78 62.617 185.107 62.6046C186.15 54.2523 186.716 45.8004 187.746 37.4606C188.575 30.8162 190.159 19.4472 197.635 18.5745C205.853 17.6146 209.435 30.2552 211.571 37.0741C213.43 42.9955 214.926 49.1662 216.961 55.0128C217.276 55.8978 217.665 57.2317 218.017 58.0046C218.369 58.7775 218.796 58.0919 218.859 57.5309C219.902 48.8296 220.543 40.0535 221.699 31.3772C222.49 25.3935 223.772 16.6672 229.892 14.7849C237.18 12.541 241.377 20.8309 243.613 27.1886C246.252 34.6807 248.037 42.7212 250.462 50.3006C250.625 50.8242 251.668 54.0653 251.819 54.1775H251.832Z" fill="#00200A" stroke="#00200A" stroke-width="0.42" stroke-miterlimit="10"/>
</g>
<defs>
<clipPath id="clip0_4643_1951">
<rect width="864" height="78" fill="white"/>
</clipPath>
</defs>
</svg>
