<svg width="280" height="277" viewBox="0 0 280 277" fill="none" xmlns="http://www.w3.org/2000/svg">
<path d="M136.563 185.121C135.862 185.729 140.42 188.838 140.911 189.258C151.384 198.375 156.901 207.937 158.163 209.853C164.966 220.186 170.553 240.921 170.46 266.869C169.641 270.166 168.8 273.462 167.982 276.781H158.07C143.296 276.781 143.366 276.781 143.202 276.781C129.784 276.267 118.166 261.282 110.405 251.277C106.22 245.877 100.446 237.391 95.5837 225.726C93.4096 226.054 93.9473 229.911 91.259 229.116C89.6226 228.625 87.6356 224.067 86.8641 222.454C80.2485 208.357 77.8641 191.83 79.8979 176.355C80.2719 173.479 81.2537 170.604 81.6511 167.845C81.7213 167.425 81.9083 167.167 81.4407 166.84C60.0042 167.401 38.6846 162.843 19.726 152.931C12.6662 149.237 6.635 144.656 0.253137 139.98C-0.191022 139.302 -0.0741381 138.063 0.790803 137.759L62.9029 117.211C55.212 111.25 48.4093 104.775 42.7288 96.8267C24.9624 71.907 22.6247 40.8626 28.8196 11.478C29.217 9.65461 30.9702 1.14546 31.9521 0.420782C32.3495 0.116884 32.6767 0 33.1677 0L144.652 84.3201L145.563 84.2733C152.6 70.9252 158.444 55.1926 172.376 47.5016C188.717 38.4782 207.278 45.1172 221.818 54.3978C240.73 48.6237 260.086 45.7484 279.91 45.351C279.746 46.0523 278.998 46.1925 278.437 46.4263C272.289 49.1848 264.691 50.8679 258.263 53.416C235.33 62.5329 214.338 79.8551 202.649 101.783C193.462 119.035 185.304 138.344 177.052 156.134C171.698 167.682 158.935 185.144 144.605 185.144H136.54L136.563 185.121Z" fill="#EBFF57"/>
</svg>
