<svg width="892" height="366" viewBox="0 0 892 366" fill="none" xmlns="http://www.w3.org/2000/svg">
<path d="M66.1007 192.745C77.4998 190.206 88.8168 186.194 100.544 185.457C157.211 181.609 220.849 214.361 217.159 278.472C211.418 377.218 68.0688 386.225 10.6634 323.178C8.44922 320.722 1.3146 312.124 0.330508 309.422C-0.243546 307.785 -0.161579 306.802 1.31456 305.82L47.649 282.894C52.1594 287.643 55.5217 293.047 60.4422 297.468C80.042 314.99 106.858 319.985 131.789 311.306C176.155 295.912 165.904 241.135 122.44 234.257C98.9858 230.573 74.8755 240.235 56.3418 253.908L10.0075 235.076V93.3433H209.45L210.434 94.3258V143.044C210.434 143.044 208.876 144.682 208.794 144.682H67.1667L66.1827 145.664V192.663L66.1007 192.745Z" fill="#EBFF57"/>
<path d="M786.781 0.0818792L788.995 0.327517C790.882 1.22819 796.13 18.5047 797.524 21.7799C800.559 28.8215 805.479 37.0913 809.825 43.5597C828.851 71.8081 857.144 91.5409 889.865 101.039C891.833 102.267 891.833 105.133 889.865 106.279C849.435 117.906 814.172 147.301 797.36 186.03C794.9 191.597 793.26 200.195 790.472 205.189C788.585 208.546 786.371 207.646 784.485 204.944C771.856 159.009 737.167 124.293 692.636 108.49C689.274 107.262 684.928 108.162 683.37 103.659C683.37 102.431 684.928 101.366 685.912 100.793C690.832 98.1732 699.279 96.3718 705.02 93.8336C736.511 80.1597 763.983 53.1396 777.76 21.698C780.221 15.9664 782.271 6.95973 784.813 2.12886C785.305 1.22819 785.715 0.409396 786.781 0V0.0818792Z" fill="#EBFF57"/>
<path d="M525.755 230.079C525.017 193.479 544.535 156.633 572.253 133.379C592.345 116.512 621.294 104.312 647.701 103.33C649.259 103.33 651.145 103.002 652.457 103.985C653.523 105.54 649.341 117.004 648.357 119.378C630.807 164.657 592.919 203.632 548.471 223.119C544.125 225.002 534.94 229.096 530.594 229.997C528.953 230.324 527.313 230.161 525.755 230.161V230.079Z" fill="#EBFF57"/>
<path d="M784.161 238.924C786.621 238.678 787.441 238.678 788.179 241.298C785.719 298.45 744.715 347.823 689.442 361.825C682.799 363.544 670.252 366.328 663.691 365.509C659.673 365.018 661.149 361.251 662.051 358.468C672.63 322.932 702.153 285.595 732.332 264.552C742.911 257.183 772.187 240.316 784.242 239.006L784.161 238.924Z" fill="#EBFF57"/>
<path d="M526.492 238.842C528.46 237.613 545.354 244.409 548.47 245.801C593 265.207 631.134 304.672 648.52 349.952C649.422 352.244 652.21 360.187 652.374 362.152C652.702 366.164 649.34 365.672 646.305 365.509C592.18 362.807 543.796 320.311 529.772 269.055C528.624 264.715 523.212 240.889 526.492 238.842Z" fill="#EBFF57"/>
<path d="M357.882 97.6009C285.88 103.005 231.099 173.175 237.741 243.755C249.468 368.13 411.269 411.198 482.452 308.604C548.878 212.887 473.103 89.0035 357.882 97.6009ZM305.562 164.087C305.644 160.566 306.218 160.075 310.154 159.911C318.519 159.42 326.392 161.221 334.018 164.332C342.465 167.771 350.092 172.52 356.242 178.579C359.195 181.527 366.493 188.896 370.922 200.195C371.496 201.587 371.906 202.816 372.234 203.634C372.562 202.816 372.89 201.587 373.546 200.195C378.056 188.896 385.273 181.609 388.225 178.579C394.376 172.602 401.921 167.771 410.449 164.332C417.994 161.303 425.949 159.583 434.314 159.911C438.168 160.075 438.824 160.566 438.906 164.087V172.029C438.496 181.936 436.282 191.516 432.017 200.687C428.491 208.056 423.571 214.442 417.666 220.583C414.468 223.94 410.941 226.806 407.087 229.344C403.479 231.719 395.114 237.205 382.895 239.334C378.466 240.071 374.694 240.316 372.234 240.316C369.692 240.316 366.001 240.071 361.655 239.334C349.354 237.123 341.153 231.719 337.463 229.344C333.69 226.888 330.246 223.94 326.884 220.583C321.061 214.606 315.977 208.138 312.532 200.687C308.268 191.516 306.054 181.936 305.644 172.029V164.087H305.562ZM438.906 249.487C438.496 259.394 436.282 268.974 432.017 278.144C428.491 285.514 423.571 291.9 417.666 298.041C414.468 301.398 410.941 304.264 407.087 306.802C403.479 309.177 395.114 314.663 382.895 316.791C378.466 317.528 374.694 317.774 372.234 317.774C369.692 317.774 366.001 317.528 361.655 316.791C349.354 314.581 341.153 309.177 337.463 306.802C333.69 304.346 330.246 301.398 326.884 298.041C321.061 292.064 315.977 285.595 312.532 278.144C308.268 268.974 306.054 259.394 305.644 249.487V241.544C305.726 238.024 306.3 237.532 310.236 237.369C318.601 236.877 326.473 238.679 334.1 241.79C342.547 245.229 350.174 249.978 356.324 256.037C359.277 258.985 366.575 266.354 371.004 277.653C371.578 279.045 371.988 280.273 372.316 281.092C372.644 280.273 372.972 279.045 373.628 277.653C378.138 266.354 385.355 259.067 388.307 256.037C394.458 250.06 402.003 245.229 410.531 241.79C418.076 238.761 426.031 237.041 434.396 237.369C438.25 237.532 438.906 238.024 438.988 241.544V249.487H438.906Z" fill="#EBFF57"/>
</svg>
