<svg width="1193" height="240" viewBox="0 0 1193 240" fill="none" xmlns="http://www.w3.org/2000/svg">
<path d="M94.5572 222.232C98.3483 222.232 101.422 219.192 101.422 215.441C101.422 211.691 98.3483 208.65 94.5572 208.65C90.7661 208.65 87.6929 211.691 87.6929 215.441C87.6929 219.192 90.7661 222.232 94.5572 222.232Z" fill="#1F5206"/>
<path d="M164.676 230.989L171.103 220.193C171.449 219.61 171.23 218.864 170.611 218.536L159.268 212.419" fill="#193207"/>
<path d="M61.4554 234.011L55.028 223.215C54.6821 222.632 54.9006 221.886 55.5197 221.558L66.8631 215.441" fill="#88922C"/>
<path d="M139.13 138.995L145.557 128.199C145.903 127.616 145.685 126.87 145.066 126.542L133.722 120.425" fill="#193207"/>
<path d="M151.129 183.854L157.556 173.058C157.902 172.475 157.684 171.729 157.065 171.401L145.721 165.284" fill="#193207"/>
<path d="M142.59 153.887L139.804 142.126C142.571 141.689 146.395 140.797 150.583 138.813C155.153 136.646 158.467 134.007 160.615 132.004H173.616C171.54 135.518 167.298 141.617 159.778 146.714C153.004 151.302 146.504 153.104 142.59 153.887Z" fill="#88922C"/>
<path d="M129.662 105.587L133.413 118.732C137.382 118.04 144.829 116.219 152.331 110.867C159.104 106.042 162.909 100.508 164.821 97.2124H151.074C147.924 99.2515 143.7 101.564 138.402 103.366C135.215 104.44 132.247 105.132 129.662 105.587Z" fill="#88922C"/>
<path d="M3.2813 103.075C-2.30851 91.4775 -0.651596 78.3147 7.4509 69.6851C15.3349 61.2922 26.2596 60.4548 28.8269 60.3273C28.6995 59.1439 27.3157 42.9772 40.753 32.7637C51.787 24.389 64.5689 26.2824 66.6082 26.6101C73.2358 11.645 87.6565 1.34047 103.88 0.120683C123.562 -1.35399 142.681 10.8075 149.618 29.9418C160.033 26.1368 171.74 28.3761 179.442 35.622C190.039 45.5988 187.108 59.4534 186.907 60.3455C188.819 60.4001 202.967 61.0373 212.253 72.5434C220.137 82.3017 219.044 93.1342 218.753 95.3917C188.309 95.7376 157.866 96.0835 127.422 96.4477C130.627 92.5698 131.719 89.6569 130.736 87.7089C128.588 83.4669 116.571 83.7582 94.6847 88.5827C95.7772 89.6569 97.5979 91.7506 98.7086 94.9002C99.9832 98.4867 99.6554 101.582 99.3823 103.111H3.2813V103.075Z" fill="#B2DA34"/>
<path d="M75.3661 107.062C73.2722 107.134 69.8309 107.007 65.898 105.587C62.3475 104.294 59.8166 102.474 58.2872 101.181H43.6116C49.3107 108.354 54.9733 111.649 59.0337 113.324C65.9345 116.165 70.8142 115.473 82.449 119.023C87.092 120.443 90.7517 121.899 93.0459 122.882C94.102 118.768 95.158 114.672 96.1959 110.557C94.8121 110.411 91.4254 109.865 88.2027 107.244C85.4897 105.041 84.2515 102.456 83.7417 101.181H72.5985L75.3843 107.062H75.3661Z" fill="#193207"/>
<path d="M113.421 239.327H59.3979C73.5454 189.152 87.6747 138.995 101.822 88.8193H113.421V239.327Z" fill="#193207"/>
<path d="M113.421 239.327C131.428 239.327 149.436 239.327 167.443 239.327C153.296 189.152 139.166 138.995 125.019 88.8193C121.159 88.8193 117.281 88.8193 113.421 88.8193V239.327Z" fill="#88922C"/>
<path d="M97.5797 103.857H3.2813C3.19026 103.293 2.3527 97.8311 6.63154 93.753C9.85433 90.6944 14.7158 89.602 19.2132 90.9129C20.1418 89.6203 27.5888 79.6617 41.5178 78.6057C54.3725 77.6408 62.9666 84.9778 64.3322 86.1794C64.8056 85.4329 66.0073 83.7216 68.3561 82.5564C70.7414 81.3548 72.9809 81.3912 73.8913 81.4458C73.7639 80.7176 72.107 69.1569 81.4294 61.5651C88.4212 55.8849 98.6722 54.7925 107.248 58.8888C113.803 49.5493 125.292 44.3242 137.091 45.3255C149.072 46.345 159.523 53.5909 164.093 64.0957C165.258 63.677 174.435 60.5274 183.539 65.5158C193.408 70.9229 194.518 81.1181 194.609 82.083C196.266 81.8464 203.131 81.0817 209.868 85.2327C216.386 89.2561 218.443 95.1912 218.917 96.7569C188.4 97.0118 157.866 97.2849 127.35 97.5398C126.985 96.3746 126.639 95.1912 126.294 93.9532C125.802 92.1873 125.365 90.4759 125.001 88.8192H101.804C101.13 91.2042 100.457 93.5709 99.8011 95.9559C99.0546 98.5775 98.3262 101.217 97.5797 103.839V103.857Z" fill="#88922C"/>
<path d="M83.2866 162.134C87.0777 162.134 90.151 159.094 90.151 155.344C90.151 151.593 87.0777 148.553 83.2866 148.553C79.4955 148.553 76.4222 151.593 76.4222 155.344C76.4222 159.094 79.4955 162.134 83.2866 162.134Z" fill="#C2D836"/>
<path d="M113.421 175.697C117.212 175.697 120.285 172.657 120.285 168.906C120.285 165.156 117.212 162.116 113.421 162.116C109.629 162.116 106.556 165.156 106.556 168.906C106.556 172.657 109.629 175.697 113.421 175.697Z" fill="#C2D836"/>
<path d="M139.804 148.808C143.595 148.808 146.668 145.767 146.668 142.017C146.668 138.266 143.595 135.226 139.804 135.226C136.013 135.226 132.939 138.266 132.939 142.017C132.939 145.767 136.013 148.808 139.804 148.808Z" fill="#C2D836"/>
<path d="M97.5433 113.725C102.077 118.003 106.629 122.264 111.163 126.542L139.13 140.324L111.709 167.997C102.751 163.991 93.8107 159.986 84.8525 155.963C93.8107 169.562 102.751 183.162 111.709 196.762H156.701" stroke="#C2D836" stroke-width="4.63" stroke-miterlimit="10" stroke-linecap="round"/>
<path d="M156.701 203.553C160.492 203.553 163.565 200.512 163.565 196.762C163.565 193.012 160.492 189.971 156.701 189.971C152.91 189.971 149.836 193.012 149.836 196.762C149.836 200.512 152.91 203.553 156.701 203.553Z" fill="#C2D836"/>
<path d="M113.421 196.762L94.5572 215.441" stroke="#C2D836" stroke-width="4.63" stroke-miterlimit="10"/>
<path d="M87.001 142.017L80.5736 131.221C80.2277 130.638 80.4462 129.892 81.0652 129.564L92.4087 123.447" fill="#88922C"/>
<path d="M75.002 186.876L68.5746 176.08C68.2287 175.497 68.4472 174.751 69.0662 174.423L80.4097 168.306" fill="#88922C"/>
<path d="M94.5572 222.232C98.3483 222.232 101.422 219.192 101.422 215.441C101.422 211.691 98.3483 208.65 94.5572 208.65C90.7661 208.65 87.6929 211.691 87.6929 215.441C87.6929 219.192 90.7661 222.232 94.5572 222.232Z" fill="#C2D836"/>
<path d="M99.273 122.882C103.064 122.882 106.137 119.842 106.137 116.092C106.137 112.341 103.064 109.301 99.273 109.301C95.482 109.301 92.4087 112.341 92.4087 116.092C92.4087 119.842 95.482 122.882 99.273 122.882Z" fill="#C2D836"/>
<path d="M474.227 141.78C472.352 157.801 466.871 171.82 457.767 183.799C448.663 195.779 436.646 205.118 421.698 211.818C406.749 218.499 389.634 221.849 370.333 221.849C349.485 221.849 331.259 218.026 315.71 210.416C300.142 202.788 288.052 192.101 279.403 178.319C270.773 164.556 266.439 148.48 266.439 130.11C266.439 111.741 270.755 95.683 279.403 81.9012C288.034 68.1376 300.142 57.4326 315.71 49.8043C331.277 42.1761 349.485 38.3711 370.333 38.3711C389.634 38.3711 406.749 41.721 421.698 48.4025C436.646 55.1022 448.663 64.4236 457.767 76.4212C466.871 88.4007 472.352 102.419 474.227 118.44H413.759C412.357 112.378 409.79 107.207 406.057 102.911C402.325 98.6323 397.463 95.3735 391.473 93.116C385.482 90.8585 378.436 89.7297 370.352 89.7297C361.32 89.7297 353.582 91.3318 347.118 94.5178C340.655 97.7038 335.72 102.328 332.297 108.409C328.874 114.471 327.163 121.717 327.163 130.11C327.163 138.503 328.874 145.713 332.297 151.702C335.72 157.692 340.655 162.316 347.118 165.593C353.582 168.852 361.32 170.491 370.352 170.491C378.436 170.491 385.482 169.435 391.473 167.341C397.463 165.247 402.325 162.061 406.057 157.765C409.79 153.486 412.357 148.152 413.759 141.78H474.227Z" fill="#C2D836"/>
<path d="M558.511 130.11L547.769 195.232L524.9 170.017H657.726V217.644H488.247L501.084 130.11L488.247 42.5767H656.561V90.2031H524.9L547.769 64.988L558.511 130.11ZM649.077 109.337V150.883H517.18V109.337H649.077Z" fill="#C2D836"/>
<path d="M682.47 42.5767H742.702V217.644H682.47V42.5767Z" fill="#C2D836"/>
<path d="M897.687 132.677L902.348 121.935C915.567 122.409 926.619 124.502 935.505 128.235C944.39 131.967 951.036 137.137 955.461 143.764C959.903 150.373 962.106 158.274 962.106 167.45C962.106 176.626 959.958 185.51 955.679 193.12C951.4 200.748 944.9 206.738 936.178 211.089C927.457 215.441 916.569 217.625 903.495 217.625H765.99L779.3 127.761L765.99 42.5581H898.579C914.766 42.5581 927.439 46.3267 936.634 53.8821C945.81 61.4375 950.399 71.8877 950.399 85.269C950.399 92.8972 948.687 100.052 945.264 106.752C941.841 113.452 936.27 119.095 928.568 123.683C920.866 128.271 910.56 131.275 897.633 132.677H897.687ZM824.856 204.572L801.987 177.736H884.395C889.53 177.736 893.572 176.371 896.54 173.658C899.49 170.946 900.983 167.232 900.983 162.571C900.983 158.365 899.544 154.797 896.667 151.829C893.791 148.88 889.548 147.387 883.94 147.387H814.841V108.172H875.073C879.115 108.172 882.502 106.934 885.233 104.44C887.946 101.945 889.312 98.7595 889.312 94.8634C889.312 91.2769 888.055 88.3275 885.579 85.9972C883.084 83.6668 879.589 82.5017 875.073 82.5017H802.242L824.892 55.6663L836.8 127.798L824.892 204.59L824.856 204.572Z" fill="#C2D836"/>
<path d="M1116.2 42.5767L1193 217.644H1128.8L1068.33 69.1936H1083.73L1023.27 217.644H959.066L1035.87 42.5767H1116.16H1116.2ZM1015.35 188.223V140.378H1134.64V188.223H1015.35Z" fill="#C2D836"/>
</svg>
