<svg width="1156" height="344" viewBox="0 0 1156 344" fill="none" xmlns="http://www.w3.org/2000/svg">
<path d="M174.508 187.335C240.101 115.809 286.199 50.956 277.472 42.4814C268.745 34.0069 208.497 85.1201 142.905 156.646C77.3124 228.172 31.2138 293.025 39.9408 301.499C48.6678 309.974 108.916 258.861 174.508 187.335Z" fill="url(#paint0_linear_4621_214)"/>
<path d="M133.386 142.886C189.908 81.2509 229.632 25.3657 222.111 18.0628C214.591 10.7598 162.674 54.8046 106.152 116.44C49.6297 178.075 9.90603 233.96 17.4265 241.263C24.9471 248.566 76.8639 204.521 133.386 142.886Z" fill="url(#paint1_linear_4621_214)"/>
<path d="M96.7413 103.388C138.475 57.8789 167.808 16.6178 162.258 11.2284C156.708 5.8391 118.377 38.3624 76.6433 83.8713C34.9096 129.38 5.57672 170.641 11.1266 176.031C16.6765 181.42 55.0075 148.897 96.7413 103.388Z" fill="url(#paint2_linear_4621_214)"/>
<path d="M66.5954 70.9502C95.6535 39.2636 116.08 10.5374 112.219 6.78828C108.358 3.03917 81.6723 25.6869 52.6142 57.3735C23.5562 89.06 3.1298 117.786 6.9906 121.535C10.8514 125.285 37.5374 102.637 66.5954 70.9502Z" fill="url(#paint3_linear_4621_214)"/>
<path d="M211.046 227.392C267.568 165.757 307.292 109.872 299.772 102.569C292.251 95.2662 240.334 139.311 183.812 200.946C127.29 262.581 87.5663 318.466 95.0868 325.769C102.607 333.072 154.524 289.027 211.046 227.392Z" fill="url(#paint4_linear_4621_214)"/>
<path d="M240.531 259.937C282.264 214.428 311.597 173.167 306.047 167.777C300.497 162.388 262.166 194.911 220.433 240.42C178.699 285.929 149.366 327.19 154.916 332.58C160.466 337.969 198.797 305.446 240.531 259.937Z" fill="url(#paint5_linear_4621_214)"/>
<path d="M264.56 286.435C293.618 254.748 314.044 226.022 310.183 222.273C306.323 218.524 279.637 241.171 250.578 272.858C221.52 304.544 201.094 333.271 204.955 337.02C208.816 340.769 235.502 318.121 264.56 286.435Z" fill="url(#paint6_linear_4621_214)"/>
<path d="M365.01 187.321C365.01 173.507 367.297 160.732 371.9 148.997C376.503 137.23 382.889 127.084 391.086 118.527C399.283 109.97 409.024 103.338 420.339 98.601C431.625 93.864 443.98 91.5107 457.404 91.5107C470.828 91.5107 483.153 93.864 494.468 98.601C505.754 103.338 515.525 109.97 523.722 118.527C531.919 127.084 538.304 137.261 542.907 148.997C547.511 160.763 549.798 173.537 549.798 187.321C549.798 189.124 549.738 190.835 549.619 192.485C549.501 194.136 549.174 196.244 548.699 198.812H406.767C408.994 211.831 414.518 222.13 423.339 229.679C432.16 237.227 443.505 240.986 457.433 240.986C466.878 240.986 475.253 239.214 482.589 235.607C489.924 232.032 495.805 226.806 500.289 219.899H544.986C542.016 229.617 537.769 238.358 532.335 246.151C526.87 253.944 520.366 260.607 512.793 266.077C505.219 271.578 496.785 275.796 487.459 278.73C478.134 281.663 468.155 283.13 457.463 283.13C444.039 283.13 431.684 280.777 420.399 276.04C409.083 271.303 399.342 264.732 391.145 256.297C382.948 247.863 376.563 237.777 371.959 226.011C367.356 214.245 365.069 201.348 365.069 187.29L365.01 187.321ZM506.199 168.159C502.725 157.432 496.755 148.997 488.321 142.854C479.886 136.711 469.58 133.655 457.404 133.655C445.227 133.655 434.565 136.711 426.101 142.854C417.666 148.997 411.816 157.432 408.578 168.159H506.17H506.199Z" fill="#D2E350"/>
<path d="M665.238 133.655C657.784 133.655 650.894 135 644.568 137.689C638.242 140.378 632.777 144.137 628.174 148.997C623.57 153.856 619.917 159.54 617.185 166.05C614.453 172.559 613.087 179.65 613.087 187.321C613.087 194.991 614.453 202.082 617.185 208.591C619.917 215.101 623.57 220.724 628.174 225.461C632.777 230.198 638.242 233.957 644.568 236.769C650.894 239.58 657.784 240.986 665.238 240.986C676.405 240.986 686.295 238.052 694.848 232.185C703.401 226.317 709.549 218.371 713.291 208.408H756.117C753.89 219.41 749.97 229.495 744.386 238.694C738.803 247.893 732.031 255.747 724.072 262.257C716.113 268.767 707.114 273.901 697.076 277.599C687.008 281.297 676.405 283.161 665.238 283.161C652.319 283.161 640.142 280.655 628.738 275.673C617.304 270.692 607.444 263.907 599.128 255.35C590.812 246.793 584.219 236.647 579.378 224.88C574.537 213.145 572.102 200.615 572.102 187.321C572.102 174.026 574.537 161.191 579.378 149.577C584.219 137.964 590.783 127.787 599.128 119.108C607.444 110.428 617.304 103.644 628.738 98.7843C640.172 93.9251 652.319 91.5107 665.238 91.5107C676.405 91.5107 687.037 93.375 697.076 97.0729C707.144 100.771 716.142 105.875 724.072 112.415C732.002 118.924 738.773 126.779 744.386 135.977C749.97 145.176 753.89 155.262 756.117 166.264H713.291C709.579 156.301 703.431 148.385 694.848 142.487C686.295 136.619 676.405 133.685 665.238 133.685V133.655Z" fill="#D2E350"/>
<path d="M778.481 187.321C778.481 173.782 780.916 161.191 785.757 149.577C790.598 137.964 797.162 127.787 805.507 119.108C813.823 110.428 823.683 103.644 835.117 98.7843C846.551 93.9251 858.698 91.5107 871.617 91.5107C884.536 91.5107 897.01 93.9556 908.296 98.7843C919.581 103.644 929.471 110.428 937.906 119.108C946.34 127.787 952.933 137.964 957.655 149.577C962.378 161.221 964.724 173.782 964.724 187.321C964.724 200.859 962.348 213.145 957.655 224.88C952.933 236.647 946.34 246.793 937.906 255.35C929.471 263.907 919.581 270.692 908.296 275.673C896.98 280.655 884.774 283.161 871.617 283.161C858.461 283.161 846.521 280.655 835.117 275.673C823.683 270.692 813.823 263.907 805.507 255.35C797.191 246.793 790.598 236.647 785.757 224.88C780.916 213.145 778.481 200.615 778.481 187.321ZM819.466 187.321C819.466 194.991 820.832 202.082 823.564 208.591C826.296 215.101 829.949 220.724 834.553 225.461C839.156 230.198 844.621 233.957 850.947 236.769C857.273 239.58 864.163 240.986 871.617 240.986C879.072 240.986 885.962 239.58 892.288 236.769C898.614 233.957 904.138 230.198 908.86 225.461C913.582 220.724 917.235 215.101 919.848 208.591C922.462 202.082 923.769 194.991 923.769 187.321C923.769 179.65 922.462 172.559 919.848 166.05C917.235 159.54 913.582 153.856 908.86 148.997C904.138 144.137 898.614 140.378 892.288 137.689C885.962 135 879.072 133.655 871.617 133.655C864.163 133.655 857.273 135 850.947 137.689C844.621 140.378 839.156 144.137 834.553 148.997C829.949 153.856 826.296 159.54 823.564 166.05C820.832 172.559 819.466 179.65 819.466 187.321Z" fill="#D2E350"/>
<path d="M1143.9 162.413H1102.91C1102.91 153.214 1099.32 145.818 1092.1 140.195C1084.89 134.572 1075.35 131.76 1063.41 131.76C1053.73 131.76 1045.71 133.869 1039.39 138.086C1033.06 142.304 1029.88 147.621 1029.88 154.009C1029.88 160.396 1032.97 165.958 1039.21 170.695C1045.42 175.432 1053.17 180.078 1062.49 184.692C1071.82 189.307 1081.86 194.136 1092.67 199.27C1103.48 204.374 1113.52 210.517 1122.84 217.668C1132.17 224.819 1139.92 233.377 1146.13 243.34C1152.33 253.303 1155.45 265.313 1155.45 279.371H1114.47C1114.47 269.928 1111.35 262.074 1105.14 255.809C1098.93 249.544 1091.18 243.859 1081.86 238.755C1072.53 233.652 1062.49 228.731 1051.68 223.994C1040.87 219.257 1030.83 213.848 1021.51 207.705C1012.18 201.562 1004.43 194.228 998.224 185.67C992.017 177.113 988.898 166.57 988.898 154.039C988.898 145.085 990.829 136.803 994.66 129.132C998.521 121.461 1003.84 114.829 1010.67 109.206C1017.5 103.583 1025.58 99.2429 1034.87 96.1867C1044.2 93.1306 1054.41 91.6025 1065.61 91.6025C1076.81 91.6025 1087.89 93.314 1097.45 96.7674C1107.01 100.221 1115.21 105.08 1122.04 111.345C1128.87 117.61 1134.22 125.098 1138.05 133.777C1141.91 142.457 1143.81 152.053 1143.81 162.535L1143.9 162.413ZM1015.03 229.495C1022.49 229.495 1028.7 232.062 1033.66 237.166C1038.61 242.27 1041.11 248.657 1041.11 256.328C1041.11 263.999 1038.61 270.386 1033.66 275.49C1028.7 280.594 1022.49 283.161 1015.03 283.161C1007.58 283.161 1001.37 280.594 996.412 275.49C991.453 270.386 988.958 263.999 988.958 256.328C988.958 248.657 991.423 242.27 996.412 237.166C1001.37 232.062 1007.58 229.495 1015.03 229.495Z" fill="#D2E350"/>
<defs>
<linearGradient id="paint0_linear_4621_214" x1="38.8966" y1="171.996" x2="278.524" y2="171.996" gradientUnits="userSpaceOnUse">
<stop stop-color="#D2F019"/>
<stop offset="1" stop-color="#3F4239"/>
</linearGradient>
<linearGradient id="paint1_linear_4621_214" x1="16.4842" y1="129.65" x2="223.004" y2="129.65" gradientUnits="userSpaceOnUse">
<stop stop-color="#D2F019"/>
<stop offset="1" stop-color="#3E4138"/>
</linearGradient>
<linearGradient id="paint2_linear_4621_214" x1="10.4658" y1="93.6042" x2="162.953" y2="93.6043" gradientUnits="userSpaceOnUse">
<stop stop-color="#D2F019"/>
<stop offset="1" stop-color="#3F4239"/>
</linearGradient>
<linearGradient id="paint3_linear_4621_214" x1="6.53372" y1="64.1583" x2="112.697" y2="64.1583" gradientUnits="userSpaceOnUse">
<stop stop-color="#D2F019"/>
<stop offset="1" stop-color="#3F433A"/>
</linearGradient>
<linearGradient id="paint4_linear_4621_214" x1="94.1605" y1="214.162" x2="300.68" y2="214.162" gradientUnits="userSpaceOnUse">
<stop stop-color="#D2F019"/>
<stop offset="1" stop-color="#3F4239"/>
</linearGradient>
<linearGradient id="paint5_linear_4621_214" x1="154.268" y1="250.148" x2="306.755" y2="250.148" gradientUnits="userSpaceOnUse">
<stop stop-color="#D2F019"/>
<stop offset="1" stop-color="#3F4239"/>
</linearGradient>
<linearGradient id="paint6_linear_4621_214" x1="204.501" y1="279.619" x2="310.664" y2="279.619" gradientUnits="userSpaceOnUse">
<stop stop-color="#D2F019"/>
<stop offset="1" stop-color="#3F4239"/>
</linearGradient>
</defs>
</svg>
