<svg width="1304" height="277" viewBox="0 0 1304 277" fill="none" xmlns="http://www.w3.org/2000/svg">
<path d="M428.469 116.44C418.464 109.964 399.926 102.904 385.503 102.904C371.079 102.904 366.077 108.795 366.077 115.551C366.077 120.25 370.775 125.253 379.027 129.975L401.679 142.925C428.165 158.237 439.059 176.775 439.059 200.012C439.059 232.973 417.879 262.685 369.302 262.685C350.18 262.685 331.339 258.57 318.107 253.264V198.819C329.001 207.352 349.596 215.884 367.245 215.884C379.027 215.884 385.783 211.466 385.783 202.934C385.783 198.235 381.949 193.817 372.529 188.51L348.684 174.975C320.726 159.079 312.497 141.125 312.497 117.304C312.497 88.177 330.45 56.104 385.783 56.104C399.622 56.104 415.495 59.0495 428.446 64.3326V116.416L428.469 116.44Z" fill="#D2E350"/>
<path d="M500.587 107.603H454.394V59.3301H596.829V107.603H550.636V259.459H500.61V107.603H500.587Z" fill="#D2E350"/>
<path d="M777.508 59.3301V182.339C777.508 233.253 747.188 262.685 699.219 262.685C651.25 262.685 620.93 233.253 620.93 182.339V59.3301H670.957V186.453C670.957 202.63 681.546 214.108 699.219 214.108C716.892 214.108 727.482 202.63 727.482 186.453V59.3301H777.508Z" fill="#D2E350"/>
<path d="M815.472 59.3301H891.68C953.185 59.3301 990.844 100.824 990.844 159.383C990.844 217.942 953.185 259.435 891.68 259.435H815.472V59.3301ZM865.498 107.603V211.186H891.096C923.169 211.186 939.369 188.814 939.369 159.383C939.369 129.951 923.192 107.58 891.096 107.58H865.498V107.603Z" fill="#D2E350"/>
<path d="M1019.71 59.3301H1069.74V259.435H1019.71V59.3301Z" fill="#D2E350"/>
<path d="M1201 56.104C1259.56 56.104 1304 100.824 1304 159.406C1304 217.988 1259.56 262.708 1201 262.708C1142.44 262.708 1098 217.988 1098 159.406C1098 100.824 1142.44 56.104 1201 56.104ZM1201 212.658C1230.13 212.658 1252.5 188.814 1252.5 159.383C1252.5 129.951 1230.13 106.107 1201 106.107C1171.87 106.107 1149.5 130.232 1149.5 159.383C1149.5 188.534 1171.57 212.658 1201 212.658Z" fill="#D2E350"/>
<path d="M136.563 185.121C135.862 185.729 140.42 188.838 140.911 189.258C151.384 198.375 156.901 207.937 158.163 209.853C164.966 220.186 170.553 240.921 170.46 266.869C169.641 270.166 168.8 273.462 167.982 276.781H158.07C143.296 276.781 143.366 276.781 143.202 276.781C129.784 276.267 118.166 261.282 110.405 251.277C106.22 245.877 100.446 237.391 95.5837 225.726C93.4096 226.054 93.9473 229.911 91.259 229.116C89.6226 228.625 87.6356 224.067 86.8641 222.454C80.2485 208.357 77.8641 191.83 79.8979 176.355C80.2719 173.479 81.2537 170.604 81.6511 167.845C81.7213 167.425 81.9083 167.167 81.4407 166.84C60.0042 167.401 38.6846 162.843 19.726 152.931C12.6662 149.237 6.635 144.656 0.253137 139.98C-0.191022 139.302 -0.0741381 138.063 0.790803 137.759L62.9029 117.211C55.212 111.25 48.4093 104.775 42.7288 96.8267C24.9624 71.907 22.6247 40.8626 28.8196 11.478C29.217 9.65461 30.9702 1.14546 31.9521 0.420782C32.3495 0.116884 32.6767 0 33.1677 0L144.652 84.3201L145.563 84.2733C152.6 70.9252 158.444 55.1926 172.376 47.5016C188.717 38.4782 207.278 45.1172 221.818 54.3978C240.73 48.6237 260.086 45.7484 279.91 45.351C279.746 46.0523 278.998 46.1925 278.437 46.4263C272.289 49.1848 264.691 50.8679 258.263 53.416C235.33 62.5329 214.338 79.8551 202.649 101.783C193.462 119.035 185.304 138.344 177.052 156.134C171.698 167.682 158.935 185.144 144.605 185.144H136.54L136.563 185.121Z" fill="#EBFF57"/>
<path d="M254.639 256.958C248.071 269.464 235.798 273.134 232.361 274.303C227.055 276.08 222.309 276.43 217.494 276.781C214.081 277.038 214.221 276.781 197.694 276.781H177.893C178.08 276.407 178.384 275.823 178.735 275.121C188.81 254.807 186.379 243.493 191.288 232.061C196.758 219.298 208.494 213.103 219.808 207.142C236.429 198.375 251.904 197.464 259.619 197.534V229.724C259.619 235.007 259.549 247.63 254.663 256.958H254.639Z" fill="#EBFF57"/>
</svg>
