<svg width="648" height="569" viewBox="0 0 648 569" fill="none" xmlns="http://www.w3.org/2000/svg">
<path d="M249.039 477.289C262.734 463.24 274.892 448.28 285.047 432.344C294.867 416.929 317.18 381.805 326.199 329.38C329.272 310.842 330.073 295.037 330.14 284.305L330.341 284.305C330.341 274.028 329.539 257.637 326.399 238.904C317.38 186.999 295.067 151.421 285.247 135.94C274.692 119.549 262.934 104.589 249.239 90.9951C224.187 65.7582 197.933 44.6841 167.737 29.724C130.125 11.4468 90.9777 2.14551 50.2265 0.259248L17.6924 0.259251C3.19567 0.714557 1.25832 3.51146 0.456654 19.9024C-1.07987 55.4813 5.93468 89.1739 18.494 121.436C32.5899 157.47 52.1639 189.731 76.8818 215.944C89.0403 228.562 119.169 259.458 165.399 278.646C171.01 281.313 175.887 282.744 179.361 284.045C175.82 285.41 170.943 287.232 165.198 289.508C118.969 308.696 88.8399 339.592 76.6813 352.21C52.0302 378.423 32.3895 410.684 18.2936 446.719C5.80107 479.175 -1.68111 512.868 0.323043 548.447C1.0579 565.293 3.06206 567.635 17.5588 568.09L50.0929 568.09C90.844 566.204 129.992 556.837 167.603 538.625C198.133 523.665 224.388 502.136 249.105 477.354L249.039 477.289Z" fill="url(#paint0_linear_4625_1563)"/>
<path d="M318.116 19.7733C316.58 55.3521 323.594 89.0447 336.154 121.306C350.249 157.341 369.823 189.602 394.541 215.815C406.7 228.433 436.829 259.329 483.058 278.517C488.67 281.184 493.546 282.615 497.02 283.915C493.48 285.281 488.603 287.103 482.858 289.379C436.628 308.567 406.499 339.463 394.341 352.081C369.69 378.294 350.049 410.555 335.953 446.589C323.394 478.851 315.978 512.544 317.916 548.123C318.717 564.969 320.655 567.31 335.151 567.766L367.686 567.766C408.437 565.879 447.584 556.513 485.196 538.301C515.726 523.341 541.98 501.811 566.698 477.03C580.393 462.98 592.552 448.02 602.706 432.085C612.526 416.669 634.839 381.546 643.858 329.121C646.931 310.583 647.733 294.778 647.8 284.045L648 284.045C648 273.769 647.198 257.378 644.059 238.645C635.04 186.74 612.727 151.161 602.907 135.681C592.351 119.29 580.594 104.33 566.899 90.7359C541.847 65.4989 515.592 44.4248 485.396 29.4648C447.785 11.1875 408.637 1.88631 367.886 5.30978e-05L335.352 5.5821e-05C320.855 0.455362 318.918 3.25222 318.116 19.6432L318.116 19.7733Z" fill="url(#paint1_linear_4625_1563)"/>
<defs>
<linearGradient id="paint0_linear_4625_1563" x1="165.131" y1="568.09" x2="165.131" y2="0.389328" gradientUnits="userSpaceOnUse">
<stop stop-color="#D3F804"/>
<stop offset="1" stop-color="#A2D200"/>
</linearGradient>
<linearGradient id="paint1_linear_4625_1563" x1="482.791" y1="567.766" x2="482.791" y2="0.0650763" gradientUnits="userSpaceOnUse">
<stop stop-color="#D3F804"/>
<stop offset="1" stop-color="#A2D200"/>
</linearGradient>
</defs>
</svg>
