<svg width="184" height="181" viewBox="0 0 184 181" fill="none" xmlns="http://www.w3.org/2000/svg">
<g clip-path="url(#clip0_465_4626)">
<path d="M184 90.5C184 98.2737 175.603 104.858 173.653 112.025C171.639 119.444 175.504 129.265 171.683 135.758C167.809 142.345 157.193 143.94 151.758 149.283C146.322 154.627 144.704 165.073 138.008 168.884C131.404 172.642 121.421 168.837 113.882 170.821C106.596 172.736 99.9026 181 92 181C84.0974 181 77.4045 172.74 70.1179 170.821C62.576 168.84 52.5924 172.642 45.992 168.884C39.2959 165.073 37.6745 154.63 32.2423 149.283C26.8101 143.937 16.1914 142.345 12.3167 135.758C8.49624 129.262 12.3645 119.441 10.3474 112.025C8.39729 104.858 0 98.2737 0 90.5C0 82.7263 8.39729 76.1424 10.3474 68.9747C12.3614 61.5557 8.49624 51.7349 12.3167 45.2422C16.1914 38.6552 26.8069 37.0603 32.2423 31.7166C37.6777 26.3729 39.2959 15.9274 45.992 12.1159C52.5956 8.35771 62.5791 12.1629 70.1179 10.1787C77.4045 8.26038 84.0974 0 92 0C99.9026 0 106.596 8.26038 113.882 10.1787C121.424 12.1598 131.408 8.35771 138.008 12.1159C144.704 15.9274 146.325 26.3698 151.758 31.7166C157.193 37.0634 167.809 38.6552 171.683 45.2422C175.504 51.7381 171.635 61.5588 173.653 68.9747C175.6 76.1424 184 82.7263 184 90.5Z" fill="#FFE636"/>
</g>
<defs>
<clipPath id="clip0_465_4626">
<rect width="184" height="181" fill="white"/>
</clipPath>
</defs>
</svg>
